<svg xmlns="http://www.w3.org/2000/svg" width="201" height="60" viewBox="0 0 53.181 15.875" xmlns:v="https://vecta.io/nano"><path d="M19.805 4.806l-.75-1.345c-.245-.438-.334-.728-.334-.728h-.03s.044.26.044.772v2.348h-.795V1.478h.87l.973 1.842a3.4 3.4 0 0 1 .253.565h.03s.052-.2.253-.565l.966-1.842h.847v4.376h-.795v-2.35l.037-.772h-.03s-.082.3-.327.728l-.75 1.345zm4.287-.714h1.285l-.282-.817c-.246-.7-.342-1.18-.342-1.18h-.03s-.104.483-.342 1.174zm1.522.66h-1.746l-.387 1.1h-.824l1.6-4.376h1.018l1.6 4.376H26zm5.193.254c-.394.632-.9.936-1.798.936-1.15 0-1.946-.817-1.946-2.273s.817-2.28 2.072-2.28c.832 0 1.4.37 1.694 1.07l-.75.372c-.163-.5-.5-.75-.98-.75-.765 0-1.2.6-1.2 1.597 0 .98.4 1.56 1.196 1.56.5 0 .824-.2 1.092-.66zM32 3.676c0 .98.394 1.582 1.174 1.582s1.18-.602 1.18-1.582c0-.988-.4-1.6-1.18-1.6-.773 0-1.174.602-1.174 1.6m2.48 3.32c-1.018.015-1.552-.46-1.775-1.1-.96-.178-1.538-.966-1.538-2.23 0-1.463.773-2.28 2.006-2.28s2.006.817 2.006 2.28c0 1.323-.63 2.117-1.664 2.25.297.297.75.416 1.196.38zm4.792-5.52V4.41c0 1.15-.832 1.53-1.73 1.53-.9 0-1.723-.38-1.723-1.53V1.477h.795v2.72c0 .735.297 1.092.93 1.092.64 0 .936-.356.936-1.084V1.477zm1.754 2.615H42.3l-.282-.817c-.245-.7-.34-1.18-.34-1.18h-.03s-.104.483-.34 1.174zm1.523.66h-1.746l-.386 1.1h-.825l1.6-4.376H42.2l1.6 4.376h-.854zm2.563-1.254h.75c.498 0 .743-.208.743-.676 0-.43-.237-.676-.743-.676h-.75zm1.657 2.355c-.12-.1-.17-.245-.208-.423l-.17-.72c-.12-.468-.35-.557-.743-.557h-.535v1.7h-.795V1.477H45.9c.995 0 1.53.4 1.53 1.278 0 .683-.438 1.047-.995 1.092v.015c.4.06.63.238.75.684l.223.847c.044.17.112.32.23.46zm2.36 0h-.795V1.478h.795zm3.834 0h-2.778V1.477h2.778v.7H50.97v1.15h1.753v.676H50.97V5.16h1.983z"/><path d="M8.107 8.65l1.27.733h.09l-.01.046 4.29 2.478V3.968l-5.64 3.257z" fill="#e52823"/><path d="M4.372 9.382l1.27-.733V7.225L0 3.97v7.937l4.3-2.482-.01-.042z" fill="#6d0020"/><path d="M6.874 0l6.874 3.968V0z" fill="#e52823"/><path d="M0 0v3.968L6.874 0zm9.698 10.492v.5h-.23c-.22.128-.365.346-.427.685h-.245l.164 3.005 4.8-2.766-4.3-2.477-.24 1.063zm-.323-1.1l-1.27-.733v.733z" fill="#6d0020"/><path d="M4.534 10.492L4.3 9.423 0 11.905l4.8 2.765.163-3.005h-.245c-.062-.34-.205-.557-.426-.685h-.23v-.5zM5.64 8.65l-1.27.733h1.27z" fill="#e52823"/><path d="M7.03 4.884a.38.38 0 0 0 .09-.011.36.36 0 0 0 .107-.254c0-.194-.158-.352-.352-.352a.36.36 0 0 0-.09.011.35.35 0 0 0-.107.253c0 .194.158.353.353.353m.4 6.886c-.993.012-1.274.617-1.274.617l-.06.124L6 15.37l.875.505L8.96 14.67l-.134-2.464c-.017-.032-.263-.45-1.393-.436" fill="#fff"/><path d="M4.052 10.492v.5h.23c.22.128.365.346.426.685h.245L4.8 14.67l1.2.7.1-2.857.058-.124s.28-.605 1.274-.617c1.13-.015 1.376.404 1.393.436l-.03-.54h.245c.062-.34.206-.557.426-.685h.23v-.5zM7.1 13.788c0-.1-.107-.237-.238-.237s-.235.148-.237.237v.616H7.1z" fill="#bcbec0"/><path d="M5.965 6.793v.35l.9.525.9-.525v-.35zm.91 1.417l-.9.525v.35h1.82v-.35zm1.233-1.713h.097c.08 0 .147.066.147.147s-.066.148-.147.148h-.097v.433l5.64-3.257L6.874 0v4.267c.194 0 .352.158.352.352 0 .095-.04.182-.1.245h0a.28.28 0 0 0-.092.204c0 .094.046.178.117.23.545.127.953.615.953 1.2" fill="#6d0020"/><path d="M6.874 9.084h-.91v-.35l.91-.525h0 0v-.542l-.91-.525v-.35h.4c-.027-.01-.047-.074-.047-.148 0-.082.025-.147.055-.147H6.4c0-.68.208-1.23.464-1.23a1.21 1.21 0 0 1 .278.032c-.07-.05-.117-.135-.117-.23 0-.077.033-.145.083-.196-.03.007-.058.01-.09.01-.195 0-.353-.158-.353-.353 0-.1.04-.19.107-.253-.15.04-.263.178-.263.34a.35.35 0 0 0 .1.246c.055.05.09.122.09.204a.29.29 0 0 1-.116.231 1.23 1.23 0 0 0-.955 1.198h-.096c-.082 0-.147.066-.147.148s.065.148.147.147h.096v2.59h1.233z" fill="#bcbec0"/><path d="M6.874 7.666v.542l.91.526v.35h-.9v.298H4.29l.245 1.1h4.683l.25-1.1h-1.36v-2.59h.097c.08 0 .147-.067.147-.148s-.066-.147-.147-.147h-.097c-.001-.68-.553-1.23-1.232-1.23-.256 0-.464.552-.464 1.23h-.036c-.03 0-.056.066-.056.147 0 .074.02.137.047.148h1.418v.35z" fill="#fff"/><path d="M5.965 7.6l.584.338-.585.338z" fill="#6d0020"/><path d="M7.784 7.598l-.584.34.584.337z" fill="#e52823"/><path d="M9.432 4.304l-.526.486.052-.714-.708-.108.592-.405-.358-.62.684.21.263-.665.262.665.685-.21-.356.62.6.405-.708.108.054.714z" fill="#fff"/><path d="M5.545 6.793c-.082.001-.147-.066-.147-.147s.065-.148.147-.148h.096A1.23 1.23 0 0 1 6.596 5.3a.29.29 0 0 0 .116-.231c0-.082-.036-.153-.09-.204a.35.35 0 0 1-.1-.245c0-.163.112-.302.264-.34.03-.007.06-.01.09-.01V0L0 3.97l5.64 3.257v-.433z" fill="#e52823"/><path d="M5.784 10.27h.357l-.048-.665H5.7zm.6 0h.472v-.665h-.52z" fill="#bcbec0"/><path d="M5.2 10.27h.33l-.085-.665h-.373zm-.487 0h.25l-.126-.665h-.27z" fill="#e52823"/><path d="M8.207 10.27h.33l.126-.665H8.3zm.577 0h.26l.147-.665H8.9z" fill="#6d0020"/><path d="M19.923 7.37h.4v2.192c0 .517-.083.858-.247 1.023-.175.176-.395.263-.664.263a.86.86 0 0 1-.674-.282.8.8 0 0 1-.186-.383 4.05 4.05 0 0 1-.048-.738V7.37h.355V7.1h-1.31v.258h.4v2.188c0 .535.113.928.34 1.176s.583.373 1.07.373c.474 0 .824-.14 1.05-.422a1.2 1.2 0 0 0 .243-.477c.04-.165.06-.428.06-.8V7.37h.4V7.1h-1.17zm4.16 1.623c0-.283-.07-.505-.2-.667s-.332-.243-.577-.243a1.12 1.12 0 0 0-.576.151c-.172.1-.324.25-.454.452V8.15h-.9v.26h.4v2.338h-.4v.26h1.3v-.26h-.4V8.93c.14-.152.28-.266.422-.342s.284-.114.428-.114c.166 0 .282.044.348.134s.098.245.098.467v1.674h-.4v.26h1.3v-.26h-.4zM25.7 8.15h-.9v.26h.4v2.34h-.4V11h1.3v-.26h-.4zm0-1.04h-.522v.52h.522zm2.517 1.3h.4l-.87 1.95-.8-1.95h.392v-.26h-1.182v.26h.23l1.092 2.63h.26L28.9 8.4h.228v-.26h-.903z"/><path d="M30.893 9.252h-1.185c.02-.303.082-.53.2-.683s.26-.227.456-.227c.36 0 .54.282.54.845zm-.5-1.17a1.14 1.14 0 0 0-.906.41c-.235.273-.353.626-.353 1.056 0 .45.13.816.392 1.1s.602.426 1.02.426c.276 0 .58-.065.9-.195v-.4a1.7 1.7 0 0 1-.833.227c-.294 0-.523-.107-.7-.32s-.247-.508-.247-.884h1.77v-.098c0-.428-.092-.758-.275-.987s-.446-.345-.786-.345m2.48.615V8.15h-.912v.26h.4v2.338h-.4V11h1.3v-.26h-.4v-1.8c.24-.26.472-.4.695-.4h.084v.293h.324v-.715a.51.51 0 0 0-.17-.033c-.388 0-.7.2-.932.603"/><path d="M35.672 9.42l-.243-.1c-.24-.1-.402-.186-.486-.26s-.127-.17-.127-.28a.4.4 0 0 1 .14-.31.5.5 0 0 1 .346-.126c.1 0 .18.015.272.05s.186.082.282.147v.328h.325v-.62c-.148-.055-.294-.096-.44-.123s-.3-.04-.43-.04c-.284 0-.52.076-.704.227a.71.71 0 0 0-.278.575c0 .373.27.665.814.876l.266.103c.304.118.456.28.456.488a.41.41 0 0 1-.156.335.62.62 0 0 1-.407.129.87.87 0 0 1-.322-.066 1.56 1.56 0 0 1-.342-.195v-.326h-.324v.634c.152.07.3.123.473.158a2.35 2.35 0 0 0 .499.053c.326 0 .6-.08.794-.24a.76.76 0 0 0 .304-.623c0-.185-.053-.335-.157-.452s-.3-.23-.555-.34M37.687 7.1h-.522v.52h.522z"/><path d="M37.687 8.15h-.9v.26h.4v2.34h-.4V11h1.3v-.26h-.4zm2.593 2.22h-.284s-.003.287-.26.388c-.044.015-.086.024-.125.024a.27.27 0 0 1-.252-.15c-.056-.1-.084-.25-.084-.448V8.4h.73v-.25h-.73V7.5l-.522.13v.52h-.4v.25h.4v1.716c0 .33.07.572.208.727s.348.232.6.232a.71.71 0 0 0 .123-.012l.033-.006c.007-.002.015-.004.022-.005.017-.004.038-.01.06-.02l.03-.01.042-.018.024-.01v-.001c.16-.082.357-.257.385-.62m2.132-2.213v.26h.387l-.866 1.946-.8-1.946h.393v-.26h-1.183v.26h.227l1.094 2.637a2.39 2.39 0 0 1-.143.281c-.098.16-.2.305-.373.4a.69.69 0 0 1-.303.074c-.114 0-.226-.045-.326-.096v-.24h-.267v.498c.044.03.145.053.247.07a1.55 1.55 0 0 0 .43.02c.22-.023.4-.113.564-.272.1-.114.23-.326.3-.463a.52.52 0 0 0 .05-.113l.068-.156 1.174-2.63h.23v-.26zm-24.3 6.228a.28.28 0 0 0 .302.257c.155 0 .26-.07.26-.206 0-.127-.064-.2-.3-.277-.225-.08-.422-.17-.422-.44 0-.302.236-.4.46-.4.265 0 .466.103.5.38l-.223.044c-.015-.16-.12-.243-.265-.243-.135 0-.233.074-.233.208 0 .145.115.194.317.267.22.08.404.17.404.44 0 .285-.226.4-.503.4-.284 0-.454-.113-.5-.375zm1.732-.583a1.15 1.15 0 0 1 .1.245h.01s.015-.08.093-.245l.213-.46h.238l-.442.898v.547h-.226v-.547l-.47-.898h.258zm1.67.795c.284 0 .488-.152.488-.54 0-.404-.212-.527-.466-.527h-.216V14.6zm-.42.2v-1.445h.448c.404 0 .697.2.697.707 0 .535-.32.738-.704.738zm2.624-.618a3.66 3.66 0 0 1 .164.275h.01l-.012-.336v-.766h.226V14.8h-.224l-.576-.824c-.1-.13-.167-.28-.167-.28h-.01l.014.34v.763h-.225v-1.445h.23zm2.054.628h-.9v-1.445h.9v.196H25.1v.427h.588v.196H25.1v.43h.665zm1-.995a1.15 1.15 0 0 1 .1.245h.01s.015-.08.093-.245l.213-.46h.238l-.44.898v.547h-.226v-.547l-.47-.898h.258zm1.472.165c.093 0 .167.07.167.167s-.074.167-.167.167-.167-.073-.167-.167.074-.167.167-.167m1.352.24h.46l-.1-.324c-.08-.226-.113-.38-.113-.38h-.01s-.034.153-.113.378zm.528.187h-.6l-.138.395h-.235l.527-1.445h.297l.522 1.445h-.242zm2.02-1.05v.972c0 .375-.275.503-.557.503s-.557-.128-.557-.503v-.972h.226v.913c0 .26.12.375.33.375s.33-.115.33-.37v-.918zm.78 1.042a.28.28 0 0 0 .302.257c.154 0 .26-.07.26-.206 0-.127-.064-.2-.3-.277-.226-.08-.422-.17-.422-.44 0-.302.236-.4.46-.4.265 0 .466.103.5.38l-.224.044c-.014-.16-.12-.243-.265-.243-.135 0-.233.074-.233.208 0 .145.115.194.316.267.22.08.405.17.405.44 0 .285-.226.4-.503.4-.285 0-.454-.113-.5-.375zm1.705.412v-1.25h-.42v-.196h1.07v.196h-.422v1.25zm1.472-.785h.265c.182 0 .267-.076.267-.24 0-.15-.086-.24-.265-.24H36.1zm.586.775c-.034-.04-.052-.078-.064-.135l-.058-.25c-.042-.17-.128-.2-.27-.2h-.194v.586h-.225v-1.445h.5c.33 0 .493.14.493.412 0 .228-.152.348-.334.358v.007c.138.017.2.076.25.23l.074.284c.017.06.04.108.076.152zm1.164-.58h.46l-.1-.324c-.08-.226-.113-.38-.113-.38h-.01s-.034.153-.113.378zm.527.187h-.6l-.137.395h-.236l.527-1.445h.297l.522 1.445h-.243zm1.204-1.05v1.25h.647v.196h-.873v-1.445zm1.5 1.454h-.226v-1.445h.226zm1.033-.6h.46l-.1-.324c-.08-.226-.113-.38-.113-.38h-.01s-.034.153-.113.378zm.527.187h-.6l-.137.395h-.236l.527-1.445h.297l.522 1.445h-.242z"/></svg>