<svg xmlns="http://www.w3.org/2000/svg" viewBox="-132 129 10922 7922" role="img" aria-label="Figure">
<defs><clipPath id="w"><rect x="-353" y="-330" width="11288" height="8485"/></clipPath><clipPath id="c0"><rect x="1662" y="1391" width="6914" height="5317"/></clipPath><clipPath id="c1"><rect x="4" y="11" width="10587" height="7813"/></clipPath><clipPath id="c2"><rect x="3848" y="244" width="2527" height="558"/></clipPath><clipPath id="c3"><rect x="4313" y="7359" width="1597" height="450"/></clipPath><clipPath id="c4"><rect x="19" y="3251" width="450" height="1597"/></clipPath><clipPath id="c5"><rect x="-353" y="-330" width="11301" height="8495"/></clipPath><clipPath id="c6"><rect x="8933" y="972" width="1224" height="450"/></clipPath><clipPath id="c7"><rect x="8933" y="1546" width="1224" height="449"/></clipPath><clipPath id="c8"><rect x="8933" y="2119" width="1426" height="450"/></clipPath><clipPath id="c9"><rect x="8933" y="2693" width="1224" height="449"/></clipPath><clipPath id="c10"><rect x="8933" y="3251" width="1193" height="450"/></clipPath><clipPath id="c11"><rect x="8933" y="3825" width="1224" height="449"/></clipPath><clipPath id="c12"><rect x="8933" y="4398" width="1193" height="450"/></clipPath><clipPath id="c13"><rect x="8933" y="4972" width="1178" height="449"/></clipPath><clipPath id="c14"><rect x="8933" y="5545" width="1178" height="450"/></clipPath><clipPath id="c15"><rect x="8933" y="6119" width="1147" height="449"/></clipPath><clipPath id="c16"><rect x="8933" y="6677" width="1534" height="449"/></clipPath><clipPath id="c17"><rect x="8933" y="7250" width="1410" height="450"/></clipPath></defs>
<g clip-path="url(#w)">
<g clip-path="url(#c0)"><rect x="1778" y="1602" width="459" height="5109" style="fill:#ff0000;stroke:#000000;stroke-width:1.00"/><rect x="2467" y="2132" width="459" height="4579" style="fill:#ff0000;stroke:#000000;stroke-width:1.00"/><path d="M2237,1602 L2467,2132" style="fill:none;stroke:#000000;stroke-width:1.00"/><rect x="3157" y="2703" width="459" height="4008" style="fill:#ff0000;stroke:#000000;stroke-width:1.00"/><path d="M2926,2132 L3157,2703" style="fill:none;stroke:#000000;stroke-width:1.00"/><rect x="3846" y="3274" width="459" height="3437" style="fill:#ff0000;stroke:#000000;stroke-width:1.00"/><path d="M3616,2703 L3846,3274" style="fill:none;stroke:#000000;stroke-width:1.00"/><rect x="4535" y="3847" width="459" height="2864" style="fill:#ff0000;stroke:#000000;stroke-width:1.00"/><path d="M4305,3274 L4535,3847" style="fill:none;stroke:#000000;stroke-width:1.00"/><rect x="5225" y="4450" width="459" height="2261" style="fill:#ff0000;stroke:#000000;stroke-width:1.00"/><path d="M4994,3847 L5225,4450" style="fill:none;stroke:#000000;stroke-width:1.00"/><rect x="5914" y="5054" width="459" height="1657" style="fill:#ff0000;stroke:#000000;stroke-width:1.00"/><path d="M5684,4450 L5914,5054" style="fill:none;stroke:#000000;stroke-width:1.00"/><rect x="6603" y="5657" width="459" height="1054" style="fill:#ff0000;stroke:#000000;stroke-width:1.00"/><path d="M6373,5054 L6603,5657" style="fill:none;stroke:#000000;stroke-width:1.00"/><rect x="7292" y="6260" width="459" height="451" style="fill:#ff0000;stroke:#000000;stroke-width:1.00"/><path d="M7062,5657 L7292,6260" style="fill:none;stroke:#000000;stroke-width:1.00"/><path d="M7751,6260 L7982,6711" style="fill:none;stroke:#000000;stroke-width:1.00"/><rect x="1778" y="1536" width="459" height="66" style="fill:#00ff00;stroke:#000000;stroke-width:1.00"/><rect x="2467" y="2036" width="459" height="96" style="fill:#00ff00;stroke:#000000;stroke-width:1.00"/><path d="M2237,1536 L2467,2036" style="fill:none;stroke:#000000;stroke-width:1.00"/><rect x="3157" y="2640" width="459" height="63" style="fill:#00ff00;stroke:#000000;stroke-width:1.00"/><path d="M2926,2036 L3157,2640" style="fill:none;stroke:#000000;stroke-width:1.00"/><rect x="3846" y="3243" width="459" height="31" style="fill:#00ff00;stroke:#000000;stroke-width:1.00"/><path d="M3616,2640 L3846,3243" style="fill:none;stroke:#000000;stroke-width:1.00"/><path d="M4305,3243 L4535,3847" style="fill:none;stroke:#000000;stroke-width:1.00"/><path d="M4994,3847 L5225,4450" style="fill:none;stroke:#000000;stroke-width:1.00"/><path d="M5684,4450 L5914,5054" style="fill:none;stroke:#000000;stroke-width:1.00"/><path d="M6373,5054 L6603,5657" style="fill:none;stroke:#000000;stroke-width:1.00"/><path d="M7062,5657 L7292,6260" style="fill:none;stroke:#000000;stroke-width:1.00"/><path d="M7751,6260 L7982,6711" style="fill:none;stroke:#000000;stroke-width:1.00"/><rect x="1778" y="1448" width="459" height="88" style="fill:#0000ff;stroke:#000000;stroke-width:1.00"/><path d="M2237,1448 L2467,2036" style="fill:none;stroke:#000000;stroke-width:1.00"/><path d="M2926,2036 L3157,2640" style="fill:none;stroke:#000000;stroke-width:1.00"/><path d="M3616,2640 L3846,3243" style="fill:none;stroke:#000000;stroke-width:1.00"/><path d="M4305,3243 L4535,3847" style="fill:none;stroke:#000000;stroke-width:1.00"/><path d="M4994,3847 L5225,4450" style="fill:none;stroke:#000000;stroke-width:1.00"/><path d="M5684,4450 L5914,5054" style="fill:none;stroke:#000000;stroke-width:1.00"/><path d="M6373,5054 L6603,5657" style="fill:none;stroke:#000000;stroke-width:1.00"/><path d="M7062,5657 L7292,6260" style="fill:none;stroke:#000000;stroke-width:1.00"/><path d="M7751,6260 L7982,6711" style="fill:none;stroke:#000000;stroke-width:1.00"/><path d="M2237,1448 L2467,2036" style="fill:none;stroke:#000000;stroke-width:1.00"/><path d="M2926,2036 L3157,2640" style="fill:none;stroke:#000000;stroke-width:1.00"/><path d="M3616,2640 L3846,3243" style="fill:none;stroke:#000000;stroke-width:1.00"/><path d="M4305,3243 L4535,3847" style="fill:none;stroke:#000000;stroke-width:1.00"/><path d="M4994,3847 L5225,4450" style="fill:none;stroke:#000000;stroke-width:1.00"/><path d="M5684,4450 L5914,5054" style="fill:none;stroke:#000000;stroke-width:1.00"/><path d="M6373,5054 L6603,5657" style="fill:none;stroke:#000000;stroke-width:1.00"/><path d="M7062,5657 L7292,6260" style="fill:none;stroke:#000000;stroke-width:1.00"/><path d="M7751,6260 L7982,6711" style="fill:none;stroke:#000000;stroke-width:1.00"/><path d="M2237,1448 L2467,2036" style="fill:none;stroke:#000000;stroke-width:1.00"/><path d="M2926,2036 L3157,2640" style="fill:none;stroke:#000000;stroke-width:1.00"/><path d="M3616,2640 L3846,3243" style="fill:none;stroke:#000000;stroke-width:1.00"/><path d="M4305,3243 L4535,3847" style="fill:none;stroke:#000000;stroke-width:1.00"/><path d="M4994,3847 L5225,4450" style="fill:none;stroke:#000000;stroke-width:1.00"/><path d="M5684,4450 L5914,5054" style="fill:none;stroke:#000000;stroke-width:1.00"/><path d="M6373,5054 L6603,5657" style="fill:none;stroke:#000000;stroke-width:1.00"/><path d="M7062,5657 L7292,6260" style="fill:none;stroke:#000000;stroke-width:1.00"/><path d="M7751,6260 L7982,6711" style="fill:none;stroke:#000000;stroke-width:1.00"/><rect x="1778" y="1404" width="459" height="44" style="fill:#00ffff;stroke:#000000;stroke-width:1.00"/><path d="M2237,1404 L2467,2036" style="fill:none;stroke:#000000;stroke-width:1.00"/><path d="M2926,2036 L3157,2640" style="fill:none;stroke:#000000;stroke-width:1.00"/><path d="M3616,2640 L3846,3243" style="fill:none;stroke:#000000;stroke-width:1.00"/><path d="M4305,3243 L4535,3847" style="fill:none;stroke:#000000;stroke-width:1.00"/><path d="M4994,3847 L5225,4450" style="fill:none;stroke:#000000;stroke-width:1.00"/><path d="M5684,4450 L5914,5054" style="fill:none;stroke:#000000;stroke-width:1.00"/><path d="M6373,5054 L6603,5657" style="fill:none;stroke:#000000;stroke-width:1.00"/><path d="M7062,5657 L7292,6260" style="fill:none;stroke:#000000;stroke-width:1.00"/><path d="M7751,6260 L7982,6711" style="fill:none;stroke:#000000;stroke-width:1.00"/><rect x="1778" y="1383" width="459" height="21" style="fill:#800000;stroke:#000000;stroke-width:1.00"/><rect x="2467" y="1757" width="459" height="279" style="fill:#800000;stroke:#000000;stroke-width:1.00"/><path d="M2237,1383 L2467,1757" style="fill:none;stroke:#000000;stroke-width:1.00"/><rect x="3157" y="2138" width="459" height="502" style="fill:#800000;stroke:#000000;stroke-width:1.00"/><path d="M2926,1757 L3157,2138" style="fill:none;stroke:#000000;stroke-width:1.00"/><rect x="3846" y="2519" width="459" height="724" style="fill:#800000;stroke:#000000;stroke-width:1.00"/><path d="M3616,2138 L3846,2519" style="fill:none;stroke:#000000;stroke-width:1.00"/><rect x="4535" y="2900" width="459" height="947" style="fill:#800000;stroke:#000000;stroke-width:1.00"/><path d="M4305,2519 L4535,2900" style="fill:none;stroke:#000000;stroke-width:1.00"/><rect x="5225" y="3280" width="459" height="1170" style="fill:#800000;stroke:#000000;stroke-width:1.00"/><path d="M4994,2900 L5225,3280" style="fill:none;stroke:#000000;stroke-width:1.00"/><rect x="5914" y="3660" width="459" height="1394" style="fill:#800000;stroke:#000000;stroke-width:1.00"/><path d="M5684,3280 L5914,3660" style="fill:none;stroke:#000000;stroke-width:1.00"/><rect x="6603" y="4040" width="459" height="1617" style="fill:#800000;stroke:#000000;stroke-width:1.00"/><path d="M6373,3660 L6603,4040" style="fill:none;stroke:#000000;stroke-width:1.00"/><rect x="7292" y="4420" width="459" height="1840" style="fill:#800000;stroke:#000000;stroke-width:1.00"/><path d="M7062,4040 L7292,4420" style="fill:none;stroke:#000000;stroke-width:1.00"/><rect x="7982" y="1383" width="459" height="5328" style="fill:#800000;stroke:#000000;stroke-width:1.00"/><path d="M7751,4420 L7982,1383" style="fill:none;stroke:#000000;stroke-width:1.00"/><path d="M2237,1383 L2467,1757" style="fill:none;stroke:#000000;stroke-width:1.00"/><path d="M2926,1757 L3157,2138" style="fill:none;stroke:#000000;stroke-width:1.00"/><path d="M3616,2138 L3846,2519" style="fill:none;stroke:#000000;stroke-width:1.00"/><path d="M4305,2519 L4535,2900" style="fill:none;stroke:#000000;stroke-width:1.00"/><path d="M4994,2900 L5225,3280" style="fill:none;stroke:#000000;stroke-width:1.00"/><path d="M5684,3280 L5914,3660" style="fill:none;stroke:#000000;stroke-width:1.00"/><path d="M6373,3660 L6603,4040" style="fill:none;stroke:#000000;stroke-width:1.00"/><path d="M7062,4040 L7292,4420" style="fill:none;stroke:#000000;stroke-width:1.00"/><path d="M7751,4420 L7982,1383" style="fill:none;stroke:#000000;stroke-width:1.00"/><path d="M2237,1383 L2467,1757" style="fill:none;stroke:#000000;stroke-width:1.00"/><path d="M2926,1757 L3157,2138" style="fill:none;stroke:#000000;stroke-width:1.00"/><path d="M3616,2138 L3846,2519" style="fill:none;stroke:#000000;stroke-width:1.00"/><path d="M4305,2519 L4535,2900" style="fill:none;stroke:#000000;stroke-width:1.00"/><path d="M4994,2900 L5225,3280" style="fill:none;stroke:#000000;stroke-width:1.00"/><path d="M5684,3280 L5914,3660" style="fill:none;stroke:#000000;stroke-width:1.00"/><path d="M6373,3660 L6603,4040" style="fill:none;stroke:#000000;stroke-width:1.00"/><path d="M7062,4040 L7292,4420" style="fill:none;stroke:#000000;stroke-width:1.00"/><path d="M7751,4420 L7982,1383" style="fill:none;stroke:#000000;stroke-width:1.00"/><rect x="2467" y="1383" width="459" height="374" style="fill:#808000;stroke:#000000;stroke-width:1.00"/><rect x="3157" y="1383" width="459" height="755" style="fill:#808000;stroke:#000000;stroke-width:1.00"/><rect x="3846" y="1383" width="459" height="1136" style="fill:#808000;stroke:#000000;stroke-width:1.00"/><rect x="4535" y="1383" width="459" height="1517" style="fill:#808000;stroke:#000000;stroke-width:1.00"/><rect x="5225" y="1383" width="459" height="1897" style="fill:#808000;stroke:#000000;stroke-width:1.00"/><rect x="5914" y="1383" width="459" height="2277" style="fill:#808000;stroke:#000000;stroke-width:1.00"/><rect x="6603" y="1383" width="459" height="2657" style="fill:#808000;stroke:#000000;stroke-width:1.00"/><rect x="7292" y="1383" width="459" height="3037" style="fill:#808000;stroke:#000000;stroke-width:1.00"/></g>
<g clip-path="url(#c1)"><path d="M1663,6711 L1663,1383" style="fill:none;stroke:#000000;stroke-width:1.00"/><path d="M1587,6711 L1739,6711" style="fill:none;stroke:#000000;stroke-width:1.00"/><path d="M1587,6179 L1739,6179" style="fill:none;stroke:#000000;stroke-width:1.00"/><path d="M1587,5646 L1739,5646" style="fill:none;stroke:#000000;stroke-width:1.00"/><path d="M1587,5113 L1739,5113" style="fill:none;stroke:#000000;stroke-width:1.00"/><path d="M1587,4580 L1739,4580" style="fill:none;stroke:#000000;stroke-width:1.00"/><path d="M1587,4047 L1739,4047" style="fill:none;stroke:#000000;stroke-width:1.00"/><path d="M1587,3515 L1739,3515" style="fill:none;stroke:#000000;stroke-width:1.00"/><path d="M1587,2982 L1739,2982" style="fill:none;stroke:#000000;stroke-width:1.00"/><path d="M1587,2449 L1739,2449" style="fill:none;stroke:#000000;stroke-width:1.00"/><path d="M1587,1916 L1739,1916" style="fill:none;stroke:#000000;stroke-width:1.00"/><path d="M1587,1383 L1739,1383" style="fill:none;stroke:#000000;stroke-width:1.00"/><path d="M1663,6711 L8556,6711" style="fill:none;stroke:#000000;stroke-width:1.00"/><path d="M1663,6787 L1663,6635" style="fill:none;stroke:#000000;stroke-width:1.00"/><path d="M2352,6787 L2352,6635" style="fill:none;stroke:#000000;stroke-width:1.00"/><path d="M3042,6787 L3042,6635" style="fill:none;stroke:#000000;stroke-width:1.00"/><path d="M3731,6787 L3731,6635" style="fill:none;stroke:#000000;stroke-width:1.00"/><path d="M4420,6787 L4420,6635" style="fill:none;stroke:#000000;stroke-width:1.00"/><path d="M5110,6787 L5110,6635" style="fill:none;stroke:#000000;stroke-width:1.00"/><path d="M5799,6787 L5799,6635" style="fill:none;stroke:#000000;stroke-width:1.00"/><path d="M6488,6787 L6488,6635" style="fill:none;stroke:#000000;stroke-width:1.00"/><path d="M7177,6787 L7177,6635" style="fill:none;stroke:#000000;stroke-width:1.00"/><path d="M7867,6787 L7867,6635" style="fill:none;stroke:#000000;stroke-width:1.00"/><path d="M8556,6787 L8556,6635" style="fill:none;stroke:#000000;stroke-width:1.00"/></g>
<g clip-path="url(#c2)"><text x="3892" y="339" dy="242" text-anchor="start" style="font-family:&quot;Arial&quot;,Helvetica,sans-serif;font-size:310px;fill:#000000;font-weight:bold">The Efficient Set</text></g>
<g clip-path="url(#c3)"><text x="4342" y="7436" dy="201" text-anchor="start" style="font-family:&quot;Arial&quot;,Helvetica,sans-serif;font-size:258px;fill:#000000;font-weight:bold">Portfolio No.</text></g>
<g clip-path="url(#c4)"><text x="78" y="4814" dy="201" text-anchor="start" transform="rotate(270.0 78 4814)" style="font-family:&quot;Arial&quot;,Helvetica,sans-serif;font-size:258px;fill:#000000;font-weight:bold">Composition</text></g>
<g clip-path="url(#c5)"><text x="1060" y="6563" dy="201" text-anchor="start" style="font-family:&quot;Arial&quot;,Helvetica,sans-serif;font-size:258px;fill:#000000">0%</text><text x="920" y="6031" dy="201" text-anchor="start" style="font-family:&quot;Arial&quot;,Helvetica,sans-serif;font-size:258px;fill:#000000">10%</text><text x="920" y="5498" dy="201" text-anchor="start" style="font-family:&quot;Arial&quot;,Helvetica,sans-serif;font-size:258px;fill:#000000">20%</text><text x="920" y="4965" dy="201" text-anchor="start" style="font-family:&quot;Arial&quot;,Helvetica,sans-serif;font-size:258px;fill:#000000">30%</text><text x="920" y="4432" dy="201" text-anchor="start" style="font-family:&quot;Arial&quot;,Helvetica,sans-serif;font-size:258px;fill:#000000">40%</text><text x="920" y="3899" dy="201" text-anchor="start" style="font-family:&quot;Arial&quot;,Helvetica,sans-serif;font-size:258px;fill:#000000">50%</text><text x="920" y="3367" dy="201" text-anchor="start" style="font-family:&quot;Arial&quot;,Helvetica,sans-serif;font-size:258px;fill:#000000">60%</text><text x="920" y="2834" dy="201" text-anchor="start" style="font-family:&quot;Arial&quot;,Helvetica,sans-serif;font-size:258px;fill:#000000">70%</text><text x="920" y="2301" dy="201" text-anchor="start" style="font-family:&quot;Arial&quot;,Helvetica,sans-serif;font-size:258px;fill:#000000">80%</text><text x="920" y="1768" dy="201" text-anchor="start" style="font-family:&quot;Arial&quot;,Helvetica,sans-serif;font-size:258px;fill:#000000">90%</text><text x="781" y="1235" dy="201" text-anchor="start" style="font-family:&quot;Arial&quot;,Helvetica,sans-serif;font-size:258px;fill:#000000">100%</text><text x="1938" y="6985" dy="201" text-anchor="start" style="font-family:&quot;Arial&quot;,Helvetica,sans-serif;font-size:258px;fill:#000000">1</text><text x="2627" y="6985" dy="201" text-anchor="start" style="font-family:&quot;Arial&quot;,Helvetica,sans-serif;font-size:258px;fill:#000000">2</text><text x="3316" y="6985" dy="201" text-anchor="start" style="font-family:&quot;Arial&quot;,Helvetica,sans-serif;font-size:258px;fill:#000000">3</text><text x="4006" y="6985" dy="201" text-anchor="start" style="font-family:&quot;Arial&quot;,Helvetica,sans-serif;font-size:258px;fill:#000000">4</text><text x="4695" y="6985" dy="201" text-anchor="start" style="font-family:&quot;Arial&quot;,Helvetica,sans-serif;font-size:258px;fill:#000000">5</text><text x="5384" y="6985" dy="201" text-anchor="start" style="font-family:&quot;Arial&quot;,Helvetica,sans-serif;font-size:258px;fill:#000000">6</text><text x="6073" y="6985" dy="201" text-anchor="start" style="font-family:&quot;Arial&quot;,Helvetica,sans-serif;font-size:258px;fill:#000000">7</text><text x="6763" y="6985" dy="201" text-anchor="start" style="font-family:&quot;Arial&quot;,Helvetica,sans-serif;font-size:258px;fill:#000000">8</text><text x="7452" y="6985" dy="201" text-anchor="start" style="font-family:&quot;Arial&quot;,Helvetica,sans-serif;font-size:258px;fill:#000000">9</text><text x="8072" y="6985" dy="201" text-anchor="start" style="font-family:&quot;Arial&quot;,Helvetica,sans-serif;font-size:258px;fill:#000000">10</text><rect x="8812" y="853" width="1768" height="6988" style="fill:#ffffff;stroke:#000000;stroke-width:1.00"/></g>
<g clip-path="url(#c6)"><rect x="8983" y="1035" width="249" height="249" style="fill:#008080;stroke:#000000;stroke-width:1.00"/><text x="9340" y="1051" dy="201" text-anchor="start" style="font-family:&quot;Arial&quot;,Helvetica,sans-serif;font-size:258px;fill:#000000">US EQ</text></g>
<g clip-path="url(#c7)"><rect x="8983" y="1606" width="249" height="249" style="fill:#800080;stroke:#000000;stroke-width:1.00"/><text x="9340" y="1622" dy="201" text-anchor="start" style="font-family:&quot;Arial&quot;,Helvetica,sans-serif;font-size:258px;fill:#000000">UK EQ</text></g>
<g clip-path="url(#c8)"><rect x="8983" y="2177" width="249" height="249" style="fill:#808000;stroke:#000000;stroke-width:1.00"/><text x="9340" y="2193" dy="201" text-anchor="start" style="font-family:&quot;Arial&quot;,Helvetica,sans-serif;font-size:258px;fill:#000000">SGQ EQ</text></g>
<g clip-path="url(#c9)"><rect x="8983" y="2748" width="249" height="249" style="fill:#000080;stroke:#000000;stroke-width:1.00"/><text x="9340" y="2764" dy="201" text-anchor="start" style="font-family:&quot;Arial&quot;,Helvetica,sans-serif;font-size:258px;fill:#000000">EU EQ</text></g>
<g clip-path="url(#c10)"><rect x="8983" y="3319" width="249" height="249" style="fill:#008000;stroke:#000000;stroke-width:1.00"/><text x="9340" y="3335" dy="201" text-anchor="start" style="font-family:&quot;Arial&quot;,Helvetica,sans-serif;font-size:258px;fill:#000000">JP EQ</text></g>
<g clip-path="url(#c11)"><rect x="8983" y="3890" width="249" height="249" style="fill:#800000;stroke:#000000;stroke-width:1.00"/><text x="9340" y="3906" dy="201" text-anchor="start" style="font-family:&quot;Arial&quot;,Helvetica,sans-serif;font-size:258px;fill:#000000">HK EQ</text></g>
<g clip-path="url(#c12)"><rect x="8983" y="4461" width="249" height="249" style="fill:#00ffff;stroke:#000000;stroke-width:1.00"/><text x="9340" y="4477" dy="201" text-anchor="start" style="font-family:&quot;Arial&quot;,Helvetica,sans-serif;font-size:258px;fill:#000000">AL EQ</text></g>
<g clip-path="url(#c13)"><rect x="8983" y="5032" width="249" height="249" style="fill:#ff00ff;stroke:#000000;stroke-width:1.00"/><text x="9340" y="5048" dy="201" text-anchor="start" style="font-family:&quot;Arial&quot;,Helvetica,sans-serif;font-size:258px;fill:#000000">US LB</text></g>
<g clip-path="url(#c14)"><rect x="8983" y="5603" width="249" height="249" style="fill:#ffff00;stroke:#000000;stroke-width:1.00"/><text x="9340" y="5619" dy="201" text-anchor="start" style="font-family:&quot;Arial&quot;,Helvetica,sans-serif;font-size:258px;fill:#000000">UK LB</text></g>
<g clip-path="url(#c15)"><rect x="8983" y="6174" width="249" height="249" style="fill:#0000ff;stroke:#000000;stroke-width:1.00"/><text x="9340" y="6190" dy="201" text-anchor="start" style="font-family:&quot;Arial&quot;,Helvetica,sans-serif;font-size:258px;fill:#000000">JP LB</text></g>
<g clip-path="url(#c16)"><rect x="8983" y="6745" width="249" height="249" style="fill:#00ff00;stroke:#000000;stroke-width:1.00"/><text x="9340" y="6761" dy="201" text-anchor="start" style="font-family:&quot;Arial&quot;,Helvetica,sans-serif;font-size:258px;fill:#000000">AL 10Y B</text></g>
<g clip-path="url(#c17)"><rect x="8983" y="7316" width="249" height="249" style="fill:#ff0000;stroke:#000000;stroke-width:1.00"/><text x="9340" y="7332" dy="201" text-anchor="start" style="font-family:&quot;Arial&quot;,Helvetica,sans-serif;font-size:258px;fill:#000000">AL_BAB</text></g>
</g>
</svg>
